# xmcd
# 
# Track frame offsets:
#     150
#     20175
#     42650
#     57825
#     79400
#     99000
#     112925
#     129600
#     138312
#     160250
#     193450
#     211275
#     228850
#     247400
#     266300
#     284825
#     302300
# 
# Disc length: 4250
# 
# Revision: 3
# Processed by: cddbd v1.5.2PL0 Copyright (c) Steve Scherf et al.
# Submitted via: fre:ac v1.1beta1pre2
# 
DISCID=f9109811
DTITLE=Casiopea - Golden☆Best
DYEAR=2004
DGENRE=Fusion
TTITLE0=Looking Up
TTITLE1=ASAYAKE
TTITLE2=Hacker
TTITLE3=Bayside Express
TTITLE4=Princess Moon
TTITLE5=Red Zone
TTITLE6=いにしえ (INISHIE☆OLD TIMES)
TTITLE7=Solid Swing
TTITLE8=Take Me (Live)
TTITLE9=Domino Line (Live)
TTITLE10=迷夢 (MEIMU☆SHALLOW DREAMS)
TTITLE11=Do-Loo-Do?
TTITLE12=I Love New York
TTITLE13=太陽風 (TAIYO-FU☆THE WIND FROM THE SUN)
TTITLE14=Pure Green
TTITLE15=Super Sonic Movement
TTITLE16=HALLE
EXTD=YEAR: 2004
EXTT0=
EXTT1=
EXTT2=
EXTT3=
EXTT4=
EXTT5=
EXTT6=
EXTT7=
EXTT8=
EXTT9=
EXTT10=
EXTT11=
EXTT12=
EXTT13=
EXTT14=
EXTT15=
EXTT16=
PLAYORDER=
